<svg width="412" height="132" viewBox="0 0 412 132" fill="none" xmlns="http://www.w3.org/2000/svg">
<path d="M120.461 35.0074C121.334 35.0167 122.207 35.0139 123.081 35.0098C128.556 35.016 133.538 35.7917 138.671 37.7071C138.68 38.9095 138.686 40.1119 138.691 41.3143C138.693 41.65 138.696 41.9856 138.699 42.3314C138.706 44.5288 138.593 46.6834 138.352 48.8676C136.646 48.6846 135.069 48.3851 133.409 47.9309C126.7 46.202 119.169 45.6956 112.523 47.911C112.135 49.4635 111.892 51.2121 112.458 52.7407C113.184 53.8574 114.483 54.0186 115.712 54.2884C117.945 54.6609 120.2 54.898 122.449 55.1579C134.624 56.5821 134.624 56.5821 138.033 60.6658C140.78 64.9918 141.216 69.9771 140.225 74.9553C139.343 78.3147 137.478 81.1669 134.471 82.9482C129.088 85.8423 123.326 86.3038 117.326 86.2752C117.085 86.2748 116.843 86.2745 116.595 86.2741C101.416 86.2285 101.416 86.2285 99.1308 83.9435C99.1026 83.0933 99.094 82.2514 99.0996 81.4012C99.1001 81.1469 99.1005 80.8925 99.101 80.6305C99.1028 79.8149 99.1068 78.9994 99.1109 78.1838C99.1125 77.6323 99.1139 77.0807 99.1152 76.5291C99.1187 75.1741 99.1242 73.8191 99.1308 72.4641C100.698 72.6759 102.168 72.9876 103.695 73.4008C108.682 74.6362 113.923 74.8235 119.04 74.6364C119.329 74.6269 119.617 74.6173 119.914 74.6075C122.345 74.4783 124.571 73.8692 126.873 73.1018C127.231 72.1682 127.253 71.2249 127.271 70.232C127.279 69.9623 127.288 69.6927 127.296 69.4149C127.166 68.4511 126.885 68.0791 126.235 67.3621C123.323 66.0002 119.67 66.0209 116.503 65.7187C111.215 65.2058 105.464 64.4982 101.682 60.347C99.4809 57.2909 98.9688 53.8045 99.0112 50.1232C99.0075 49.8007 99.0038 49.4782 99 49.146C99.0137 45.6082 99.8697 42.5388 102.3 39.9081C107.1 35.3219 114.145 34.9344 120.461 35.0074Z" fill="#01162F"/>
<path d="M223.091 48.9361C226.252 51.44 227.264 54.954 227.828 58.7996C228.076 61.1996 228.032 63.603 228.017 66.0132C228.016 66.5792 228.015 67.1452 228.014 67.7112C228.012 69.1869 228.006 70.6625 227.999 72.1381C227.991 73.9161 227.988 75.6942 227.984 77.4723C227.978 80.1608 227.966 82.8493 227.955 85.5378C223.746 85.5378 219.537 85.5378 215.2 85.5378C215.01 83.83 214.841 82.2919 214.831 80.6022C214.828 80.2222 214.824 79.8423 214.821 79.4508C214.819 79.0492 214.816 78.6475 214.814 78.2337C214.807 77.5905 214.801 76.9473 214.794 76.3042C214.777 74.7315 214.763 73.1588 214.753 71.5861C214.748 70.6995 214.74 69.813 214.729 68.9265C214.719 68.0957 214.713 67.2649 214.711 66.434C214.692 62.9012 214.692 62.9012 213.155 59.8163C211.755 58.6383 209.77 58.6276 208.024 58.6754C206.568 58.8166 205.231 59.0588 204.248 60.2137C203.161 62.0005 203.044 63.6934 203.017 65.7364C203.014 65.9513 203.011 66.1661 203.008 66.3874C202.998 67.0931 202.99 67.7987 202.982 68.5044C202.975 68.9954 202.969 69.4864 202.962 69.9774C202.944 71.2664 202.929 72.5555 202.913 73.8445C202.897 75.1612 202.879 76.4779 202.862 77.7946C202.828 80.3757 202.795 82.9567 202.764 85.5378C200.953 85.5457 199.143 85.5515 197.332 85.5553C196.716 85.5569 196.099 85.5591 195.483 85.5619C194.599 85.5657 193.715 85.5676 192.83 85.569C192.414 85.5714 192.414 85.5714 191.99 85.574C191.33 85.574 190.669 85.5576 190.009 85.5378C189.493 85.0213 189.65 84.4561 189.65 83.7422C189.649 83.4229 189.648 83.1037 189.647 82.7747C189.648 82.4216 189.648 82.0684 189.649 81.7045C189.648 81.3349 189.648 80.9652 189.647 80.5844C189.646 79.3557 189.647 78.1271 189.648 76.8984C189.648 76.0489 189.647 75.1993 189.647 74.3498C189.646 72.5666 189.647 70.7834 189.649 69.0003C189.65 66.9359 189.65 64.8716 189.648 62.8072C189.647 61.0378 189.646 59.2684 189.647 57.4989C189.648 56.4408 189.648 55.3827 189.647 54.3246C189.646 53.1456 189.647 51.9667 189.649 50.7877C189.648 50.4345 189.648 50.0814 189.647 49.7175C189.648 49.3982 189.649 49.079 189.65 48.75C189.65 48.4709 189.65 48.1918 189.65 47.9042C189.69 47.2733 189.69 47.2733 190.009 46.9544C190.906 46.9261 191.794 46.9177 192.691 46.9233C192.959 46.9237 193.228 46.9242 193.505 46.9246C194.366 46.9264 195.227 46.9304 196.088 46.9345C196.67 46.9361 197.252 46.9375 197.835 46.9388C199.265 46.9421 200.696 46.9483 202.126 46.9544C202.337 48.7433 202.547 50.5321 202.764 52.3752C203.185 51.8491 203.606 51.3229 204.04 50.7809C208.847 45.6683 217.259 45.1264 223.091 48.9361Z" fill="#01162F"/>
<path d="M332.704 47.1537C333.118 47.15 333.532 47.1463 333.958 47.1425C338.976 47.1575 343.947 48.0447 347.731 51.5581C348.106 51.9625 348.106 51.9625 348.488 52.3752C348.699 52.5988 348.909 52.8224 349.126 53.0528C353.221 58.94 353.166 66.9164 352.11 73.7397C351.365 77.8891 349.402 81.4914 345.937 83.9434C342.437 85.9894 338.459 86.6396 334.458 86.8133C334.184 86.8264 333.911 86.8396 333.629 86.8531C328.207 86.984 322.359 86.2176 317.995 82.7614C314.352 79.2382 313.144 74.0898 312.998 69.1807C312.991 68.4948 312.99 67.8089 312.994 67.123C312.995 66.7617 312.996 66.4004 312.998 66.0281C313.074 60.3466 314.082 55.4222 318.075 51.1894C321.969 47.5282 327.631 47.1083 332.704 47.1537ZM326.845 59.8687C324.781 62.79 324.92 66.7564 325.311 70.151C325.65 71.9608 326.373 73.2797 327.662 74.6165C330.084 75.9255 333.167 75.9781 335.813 75.4136C337.342 74.9039 338.426 74.5162 339.323 73.1118C340.245 71.0747 340.319 69.0435 340.337 66.844C340.34 66.5626 340.343 66.2813 340.347 65.9914C340.316 63.6905 339.959 61.6096 338.543 59.7491C335.309 57.3051 329.973 57.1482 326.845 59.8687Z" fill="#398611"/>
<path d="M143.135 46.9543C147.87 46.9543 152.606 46.9543 157.484 46.9543C158.577 49.6852 159.548 52.4124 160.454 55.2051C160.568 55.5568 160.568 55.5568 160.685 55.9156C162.11 60.3072 163.283 64.7287 164.314 69.2293C164.436 69.9021 164.436 69.9021 164.818 70.232C164.858 70.0393 164.898 69.8465 164.938 69.648C165.901 65.0469 167.094 60.5635 168.505 56.082C168.579 55.8461 168.653 55.6102 168.729 55.3672C168.944 54.6788 169.163 53.9914 169.383 53.3044C169.51 52.9096 169.636 52.5149 169.767 52.1081C170.387 50.3644 171.122 48.6629 171.833 46.9543C176.358 46.9543 180.883 46.9543 185.545 46.9543C185.323 48.2839 185.142 49.2221 184.676 50.4316C184.563 50.7297 184.449 51.0278 184.332 51.335C184.145 51.8166 184.145 51.8166 183.954 52.3079C183.824 52.6492 183.693 52.9904 183.558 53.3421C183.126 54.4686 182.691 55.5942 182.257 56.7198C181.952 57.512 181.648 58.3044 181.344 59.0968C180.637 60.9369 179.929 62.7763 179.22 64.6155C178.442 66.6336 177.666 68.6526 176.891 70.6716C175.848 73.3855 174.804 76.0987 173.759 78.8116C172.695 81.5752 171.633 84.34 170.574 87.1057C170.055 88.4606 169.535 89.8152 169.016 91.1699C168.73 91.9156 168.444 92.6614 168.159 93.4073C167.766 94.4361 167.372 95.4645 166.977 96.4928C166.859 96.8011 166.742 97.1095 166.621 97.4272C166.513 97.7063 166.406 97.9854 166.295 98.2729C166.202 98.5168 166.109 98.7606 166.012 99.0119C165.775 99.5681 165.775 99.5681 165.456 99.887C164.49 99.9153 163.531 99.9237 162.565 99.9181C162.275 99.9177 161.986 99.9172 161.687 99.9168C160.758 99.915 159.829 99.911 158.899 99.9069C158.271 99.9053 157.642 99.9039 157.014 99.9026C155.47 99.899 153.926 99.8935 152.382 99.887C152.575 98.2916 153.3 97.0415 154.03 95.6383C157.28 89.7434 157.28 89.7434 157.95 83.2995C157.36 81.5542 156.465 79.9767 155.546 78.3851C154.451 76.4252 153.714 74.2917 152.909 72.2012C152.385 70.8494 151.841 69.5055 151.3 68.1605C149.735 64.2558 148.176 60.3482 146.623 56.4386C146.318 55.6704 146.012 54.9023 145.706 54.1344C145.276 53.0577 144.848 51.9803 144.421 50.9029C144.29 50.577 144.16 50.2511 144.026 49.9153C143.908 49.6177 143.79 49.3201 143.669 49.0135C143.565 48.7531 143.462 48.4928 143.355 48.2245C143.135 47.5921 143.135 47.5921 143.135 46.9543Z" fill="#01162F"/>
<path d="M358.054 47.5922C362.263 47.5922 366.472 47.5922 370.809 47.5922C370.825 49.1434 370.84 50.6947 370.856 52.293C370.868 53.2812 370.879 54.2694 370.891 55.2575C370.91 56.8228 370.929 58.3881 370.944 59.9534C370.955 61.2167 370.97 62.48 370.987 63.7432C370.993 64.2229 370.998 64.7027 371.001 65.1824C370.865 69.5838 370.865 69.5838 372.324 73.5926C374.596 75.068 377.644 74.7676 380.197 74.345C381.224 73.9844 381.639 73.6608 382.288 72.783C383.16 70.2705 383.039 67.6583 383.058 65.0304C383.064 64.5265 383.07 64.0225 383.077 63.5186C383.093 62.1997 383.106 60.8808 383.118 59.5619C383.133 57.9754 383.153 56.3889 383.171 54.8025C383.199 52.399 383.222 49.9956 383.245 47.5922C387.454 47.5922 391.663 47.5922 396 47.5922C396 60.2195 396 72.8468 396 85.8567C392.001 85.8567 388.003 85.8567 383.883 85.8567C383.384 85.3574 383.369 84.7645 383.225 84.083C383.141 83.6878 383.141 83.6878 383.055 83.2846C383.012 83.0811 382.97 82.8776 382.926 82.668C382.795 82.7913 382.663 82.9146 382.528 83.0417C379.053 86.1751 375.054 86.8388 370.49 86.8133C367.374 86.5987 363.825 85.9507 361.562 83.6246C359.021 80.4375 358 76.9232 358.018 72.896C358.018 72.622 358.018 72.3481 358.018 72.0659C358.018 71.1635 358.021 70.2612 358.023 69.3589C358.024 68.732 358.024 68.1052 358.024 67.4783C358.026 65.8307 358.029 64.1831 358.032 62.5355C358.036 60.5574 358.038 58.5794 358.04 56.6013C358.043 53.5982 358.049 50.5952 358.054 47.5922Z" fill="#398611"/>
<path d="M266.538 36.1127C271.168 36.1127 275.798 36.1127 280.569 36.1127C281.583 38.3447 282.54 40.5241 283.379 42.8165C283.539 43.2508 283.539 43.2508 283.703 43.6939C284.041 44.6076 284.378 45.5218 284.714 46.4362C285.159 47.6413 285.604 48.8461 286.049 50.0509C286.155 50.3377 286.261 50.6245 286.37 50.92C287.403 54.6103 287.403 54.6103 289.178 57.796C289.261 57.5663 289.344 57.3366 289.429 57.1C291.266 52.0208 293.157 46.9651 295.117 41.9321C295.216 41.6772 295.315 41.4224 295.418 41.1598C295.7 40.4355 295.982 39.7115 296.265 38.9876C296.35 38.7701 296.435 38.5526 296.523 38.3286C297.112 36.8259 297.112 36.8259 297.469 36.1127C302.099 36.1127 306.729 36.1127 311.499 36.1127C311.193 37.6442 310.687 38.8623 310.014 40.2493C309.835 40.6238 309.835 40.6238 309.653 41.0059C309.26 41.8269 308.865 42.6468 308.47 43.4667C308.195 44.0407 307.92 44.6147 307.646 45.1889C307.081 46.3691 306.516 47.5489 305.951 48.7285C305.179 50.3396 304.412 51.9527 303.648 53.5672C303.532 53.8116 303.416 54.0559 303.297 54.3077C302.726 55.5133 302.16 56.7207 301.602 57.9322C300.649 59.9921 299.694 62.0024 298.524 63.9504C294.63 70.7052 295.399 78.2872 295.555 85.8567C291.241 85.8567 286.927 85.8567 282.482 85.8567C282.529 84.8537 282.576 83.8508 282.625 82.8174C282.928 73.394 281.548 66.7881 276.916 58.6246C275.746 56.545 274.758 54.3832 273.765 52.2156C273.258 51.112 272.739 50.0138 272.222 48.9149C272.02 48.4851 271.819 48.0553 271.617 47.6254C271.086 46.4938 270.553 45.363 270.02 44.2323C269.597 43.3343 269.175 42.4358 268.753 41.5372C268.554 41.1131 268.354 40.6892 268.154 40.2654C267.88 39.6856 267.608 39.1049 267.335 38.5242C267.104 38.0316 267.104 38.0316 266.867 37.529C266.538 36.7505 266.538 36.7505 266.538 36.1127Z" fill="#398611"/>
<path d="M265.582 48.2298C265.582 51.9128 265.582 55.5957 265.582 59.3903C262.074 59.0714 262.074 59.0714 261.085 58.9706C254.268 58.2176 254.268 58.2176 248.024 60.4067C246.548 62.5487 246.295 64.5317 246.33 67.0632C246.326 67.3371 246.322 67.6111 246.319 67.8933C246.327 69.6685 246.61 70.879 247.406 72.464C247.511 72.7797 247.616 73.0954 247.725 73.4207C253.063 74.6276 257.998 74.4631 263.427 73.9386C263.743 73.9087 264.06 73.8787 264.386 73.8479C264.67 73.8195 264.955 73.7911 265.248 73.7619C265.463 73.7545 265.679 73.7471 265.901 73.7395C266.219 74.0584 266.219 74.0584 266.256 75.0606C266.256 75.5042 266.254 75.9478 266.251 76.3914C266.25 76.6245 266.25 76.8576 266.249 77.0978C266.247 77.8451 266.243 78.5924 266.239 79.3397C266.238 79.8452 266.236 80.3507 266.235 80.8562C266.231 82.0979 266.226 83.3395 266.219 84.5812C262.076 86.0628 257.964 86.236 253.596 86.2701C252.965 86.275 252.335 86.2835 251.704 86.2922C246.695 86.2887 241.66 85.523 237.84 82.0302C233.19 77.1715 233.215 70.0459 233.347 63.732C233.517 58.7322 234.774 53.9661 238.509 50.4744C245.605 44.5421 257.312 46.1625 265.582 48.2298Z" fill="#01162F"/>
<path d="M40.2505 28.001C40.483 28.0016 40.7155 28.0021 40.9551 28.0027C44.6162 28.0173 48.1549 28.2033 51.7386 29.0074C51.9728 29.0579 52.207 29.1084 52.4483 29.1605C61.6794 31.2035 71.0418 35.7254 76.3287 43.8944C78.7575 47.8075 80.6264 52.5787 79.9935 57.2623C79.3523 58.6158 78.6664 59.4577 77.2591 59.9966C75.7733 60.158 74.422 60.2007 73.0247 59.6359C71.5592 58.348 71.0309 57.3114 70.7271 55.3824C69.834 50.3707 67.3433 46.6906 63.2836 43.5906C54.1122 37.3237 42.2996 36.1142 31.5786 37.9685C24.8023 39.2624 18.6775 42.0348 13.7616 46.9325C13.5912 47.0959 13.4208 47.2592 13.2453 47.4274C10.3319 50.4785 9.35373 54.2952 9.42387 58.3755C9.49853 60.0907 9.9497 61.5067 10.7234 63.0348C10.9167 63.4166 10.9167 63.4166 11.1139 63.8062C14.5226 69.94 20.9084 73.6265 27.4735 75.5819C28.5677 75.8853 29.6674 76.1541 30.7753 76.4027C31.0709 76.4701 31.3666 76.5374 31.6713 76.6068C33.1778 76.8971 34.6834 77.0345 36.2119 77.148C36.7006 77.1849 36.7006 77.1849 37.1992 77.2225C37.8564 77.2702 38.514 77.3138 39.1719 77.3529C42.3903 77.5771 42.3903 77.5771 43.6513 79.0044C45.0135 80.7186 46.0634 82.6314 47.1433 84.5298C48.5944 87.047 50.0418 89.5356 51.7386 91.8973C51.925 92.1582 52.1114 92.419 52.3035 92.6877C53.4421 94.2205 54.3105 95.3045 56.2388 95.733C58.2905 95.3307 59.5647 93.6327 60.7011 91.9733C64.0245 86.4017 65.8504 79.844 67.5216 73.6256C67.6608 73.109 67.6608 73.109 67.8028 72.582C67.9752 71.932 68.1431 71.2808 68.3055 70.6283C68.8369 68.604 69.3851 67.1641 71.1958 65.9662C72.4896 65.5375 73.8612 65.5221 75.1431 65.9994C76.1883 66.563 77.0415 67.1279 77.5629 68.1997C78.2157 70.9709 77.314 73.4459 76.5376 76.0989C76.3973 76.5891 76.2571 77.0794 76.117 77.5696C74.4453 83.3589 72.5742 89.0311 69.6637 94.3279C69.4965 94.6502 69.3293 94.9725 69.157 95.3046C66.916 99.4405 63.529 103.051 59.0302 104.658C55.7539 105.46 52.8994 104.817 50.0486 103.101C45.0182 99.6999 40.1781 92.9574 38.1266 87.2713C37.792 86.6505 37.792 86.6505 36.9865 86.5119C36.6612 86.4789 36.3358 86.446 36.0007 86.412C35.6377 86.3706 35.2748 86.3291 34.9008 86.2864C34.5106 86.2456 34.1205 86.2048 33.7185 86.1628C23.1449 84.9108 12.5739 80.7912 5.55853 72.4531C1.532 67.1787 -0.459931 61.1652 0.0898384 54.528C0.343105 52.8648 0.801787 51.2695 1.3051 49.6669C1.39283 49.3861 1.48056 49.1053 1.57094 48.816C2.8031 45.367 5.18534 42.5555 7.68524 39.9448C7.87479 39.736 8.06435 39.5273 8.25964 39.3122C13.1718 34.0802 20.4518 31.0565 27.3004 29.3872C27.5476 29.3268 27.7948 29.2664 28.0495 29.2041C32.1071 28.271 36.1054 27.9804 40.2505 28.001Z" fill="#021730"/>
<path d="M56.5866 53.8384C57.7952 54.4618 58.5074 55.1021 59.0301 56.3509C59.39 57.8733 59.3778 58.8734 58.7263 60.3005C58.0164 61.3417 57.4596 61.9541 56.2958 62.4272C54.7788 62.6425 53.5868 62.5947 52.2133 61.8955C50.8237 60.6754 50.3261 59.8375 50.1827 57.9851C50.2463 56.7354 50.6662 55.8101 51.4347 54.8318C52.9102 53.5091 54.7242 53.1433 56.5866 53.8384Z" fill="#398611"/>
<path d="M26.5219 53.6165C28.1465 54.2101 29.091 55.109 29.8638 56.6547C30.1096 58.6328 29.8337 59.9142 28.6486 61.5157C27.4681 62.6247 26.1437 62.5798 24.5957 62.534C23.1283 62.34 22.3447 61.6427 21.395 60.5663C20.7786 58.9911 20.7673 57.3468 21.4139 55.7812C22.9208 54.0146 24.2127 53.3796 26.5219 53.6165Z" fill="#398611"/>
<path d="M41.4088 53.6165C42.8159 54.3864 43.9336 55.1146 44.447 56.6546C44.6063 58.172 44.6141 59.3524 43.9343 60.7371C43.0112 61.7601 42.3975 62.3458 40.9934 62.5126C39.4762 62.5666 38.3542 62.5382 37.1554 61.5157C35.975 60.1714 35.5414 59.4121 35.571 57.5946C35.713 56.2109 36.3076 55.3576 37.3073 54.433C38.5996 53.5607 39.8816 53.4024 41.4088 53.6165Z" fill="#398611"/>
</svg>
