<svg width="60" height="60" viewBox="0 0 60 60" fill="none" xmlns="http://www.w3.org/2000/svg">
<path d="M27.6315 3.00069C27.7912 3.00107 27.9508 3.00146 28.1152 3.00185C30.6286 3.0119 33.0578 3.13956 35.518 3.69157C35.6787 3.72625 35.8395 3.76094 36.0052 3.79667C42.3422 5.19913 48.7694 8.30343 52.3988 13.9113C54.0662 16.5977 55.3491 19.873 54.9146 23.0882C54.4745 24.0174 54.0036 24.5954 53.0375 24.9653C52.0175 25.0761 51.0899 25.1054 50.1307 24.7177C49.1246 23.8336 48.762 23.122 48.5534 21.7977C47.9403 18.3573 46.2305 15.8309 43.4435 13.7028C37.1475 9.40059 29.0382 8.57028 21.6783 9.84326C17.0265 10.7315 12.8219 12.6347 9.44716 15.997C9.33021 16.1091 9.21326 16.2212 9.09276 16.3367C7.09271 18.4313 6.42123 21.0514 6.46939 23.8524C6.52064 25.0299 6.83036 26.002 7.3615 27.051C7.49418 27.3131 7.49418 27.3131 7.62954 27.5806C9.9696 31.7914 14.3534 34.3221 18.8602 35.6645C19.6114 35.8727 20.3664 36.0573 21.1269 36.2279C21.3299 36.2742 21.5329 36.3204 21.742 36.3681C22.7762 36.5674 23.8098 36.6617 24.8591 36.7396C25.1946 36.7649 25.1946 36.7649 25.5368 36.7907C25.988 36.8235 26.4395 36.8534 26.8911 36.8803C29.1005 37.0341 29.1005 37.0341 29.9662 38.0139C30.9013 39.1908 31.622 40.5039 32.3634 41.8071C33.3596 43.5351 34.3531 45.2435 35.518 46.8648C35.6459 47.0439 35.7739 47.2229 35.9058 47.4074C36.6874 48.4596 37.2836 49.2038 38.6074 49.498C40.0158 49.2218 40.8905 48.0561 41.6707 46.917C43.9522 43.0921 45.2056 38.5904 46.3528 34.3215C46.4484 33.9669 46.4484 33.9669 46.5459 33.6051C46.6642 33.1589 46.7795 32.7118 46.891 32.2638C47.2558 30.8742 47.6321 29.8857 48.8752 29.0633C49.7633 28.7691 50.7049 28.7585 51.5849 29.0862C52.3024 29.4731 52.8882 29.8609 53.2461 30.5966C53.6942 32.4991 53.0752 34.1981 52.5422 36.0194C52.4459 36.3559 52.3497 36.6924 52.2535 37.029C51.1059 41.0033 49.8214 44.8972 47.8234 48.5333C47.7086 48.7546 47.5938 48.9759 47.4755 49.2039C45.9371 52.0431 43.612 54.522 40.5236 55.6246C38.2745 56.1754 36.3149 55.7338 34.3578 54.5557C30.9045 52.2212 27.5818 47.5925 26.1735 43.6891C25.9438 43.263 25.9438 43.263 25.3908 43.1678C25.1675 43.1451 24.9442 43.1225 24.7141 43.0992C24.4649 43.0708 24.2157 43.0423 23.959 43.013C23.6912 42.985 23.4233 42.957 23.1474 42.9281C15.8887 42.0686 8.63187 39.2406 3.81587 33.5166C1.0517 29.8957 -0.315738 25.7675 0.0616731 21.2112C0.235538 20.0694 0.550418 18.9742 0.895939 17.8741C0.956162 17.6813 1.01639 17.4885 1.07843 17.2899C1.9243 14.9223 3.55968 12.9922 5.27583 11.2C5.40596 11.0567 5.53609 10.9134 5.67015 10.7657C9.04229 7.17397 14.0399 5.09827 18.7414 3.95228C18.9111 3.91081 19.0808 3.86934 19.2557 3.82661C22.0411 3.18601 24.786 2.98655 27.6315 3.00069Z" fill="#021730"/>
<path d="M38.8461 20.7378C39.6758 21.1658 40.1647 21.6053 40.5236 22.4625C40.7706 23.5077 40.7622 24.1943 40.315 25.1739C39.8276 25.8887 39.4454 26.3091 38.6465 26.6339C37.6051 26.7817 36.7868 26.7489 35.8439 26.2689C34.89 25.4313 34.5484 24.8561 34.4499 23.5844C34.4936 22.7265 34.7818 22.0913 35.3094 21.4197C36.3223 20.5117 37.5676 20.2606 38.8461 20.7378Z" fill="#398611"/>
<path d="M18.207 20.5855C19.3223 20.993 19.9706 21.61 20.5012 22.6711C20.6699 24.0291 20.4805 24.9088 19.6669 26.0082C18.8565 26.7695 17.9473 26.7387 16.8847 26.7072C15.8773 26.5741 15.3394 26.0953 14.6874 25.3564C14.2643 24.275 14.2565 23.1462 14.7004 22.0715C15.7349 20.8587 16.6217 20.4228 18.207 20.5855Z" fill="#398611"/>
<path d="M28.4267 20.5854C29.3927 21.1139 30.1599 21.6138 30.5124 22.6711C30.6217 23.7128 30.6271 24.523 30.1604 25.4737C29.5267 26.1759 29.1054 26.578 28.1415 26.6925C27.1 26.7296 26.3297 26.7101 25.5068 26.0081C24.6965 25.0853 24.3988 24.564 24.4191 23.3163C24.5166 22.3664 24.9248 21.7807 25.611 21.1459C26.4982 20.5471 27.3783 20.4385 28.4267 20.5854Z" fill="#398611"/>
</svg>
