<svg width="63" height="63" viewBox="0 0 63 63" fill="none" xmlns="http://www.w3.org/2000/svg">
<path d="M33.1292 3.00068C33.2859 3.00106 33.4426 3.00143 33.604 3.00181C36.0717 3.01168 38.4568 3.13702 40.8722 3.679C41.03 3.71305 41.1879 3.7471 41.3505 3.78218C47.5724 5.15915 53.8827 8.207 57.4461 13.7129C59.0831 16.3504 60.3428 19.5662 59.9162 22.723C59.4841 23.6353 59.0217 24.2027 58.0732 24.566C57.0718 24.6747 56.161 24.7035 55.2192 24.3228C54.2315 23.4548 53.8754 22.7561 53.6706 21.456C53.0687 18.078 51.3899 15.5976 48.6536 13.5082C42.4721 9.28422 34.5102 8.469 27.2842 9.71884C22.7169 10.591 18.5888 12.4596 15.2754 15.7607C15.1606 15.8708 15.0457 15.9808 14.9274 16.0942C12.9637 18.1507 12.3045 20.7232 12.3518 23.4733C12.4021 24.6294 12.7062 25.5838 13.2277 26.6137C13.3579 26.8711 13.3579 26.8711 13.4908 27.1337C15.7883 31.2679 20.0924 33.7526 24.5173 35.0706C25.2548 35.275 25.9961 35.4562 26.7428 35.6238C26.9421 35.6692 27.1413 35.7146 27.3467 35.7614C28.3621 35.957 29.3769 36.0496 30.4071 36.1261C30.7365 36.151 30.7365 36.151 31.0725 36.1764C31.5155 36.2085 31.9588 36.2379 32.4021 36.2643C34.5714 36.4153 34.5714 36.4153 35.4213 37.3773C36.3394 38.5327 37.0471 39.822 37.775 41.1015C38.753 42.7981 39.7285 44.4754 40.8722 46.0673C40.9978 46.2431 41.1235 46.4189 41.2529 46.6C42.0204 47.6331 42.6057 48.3637 43.9054 48.6525C45.2882 48.3814 46.147 47.2369 46.913 46.1185C49.153 42.3632 50.3836 37.9433 51.51 33.752C51.6039 33.4038 51.6039 33.4038 51.6996 33.0486C51.8158 32.6105 51.9289 32.1716 52.0384 31.7318C52.3966 30.3674 52.7661 29.3969 53.9865 28.5895C54.8585 28.3006 55.783 28.2901 56.647 28.6119C57.3515 28.9918 57.9266 29.3725 58.278 30.0949C58.718 31.9627 58.1102 33.6309 57.5869 35.419C57.4924 35.7494 57.3979 36.0798 57.3034 36.4103C56.1767 40.3123 54.9156 44.1354 52.9539 47.7055C52.8412 47.9227 52.7284 48.14 52.6123 48.3638C51.1019 51.1514 48.819 53.5852 45.7868 54.6678C43.5786 55.2086 41.6546 54.775 39.7331 53.6183C36.3426 51.3263 33.0803 46.7818 31.6976 42.9493C31.4721 42.5309 31.4721 42.5309 30.9292 42.4374C30.7099 42.4152 30.4906 42.393 30.2647 42.3701C30.0201 42.3422 29.7755 42.3143 29.5234 42.2855C29.2604 42.258 28.9975 42.2305 28.7265 42.2022C21.5998 41.3583 14.4749 38.5817 9.74649 32.9617C7.03258 29.4067 5.69 25.3536 6.06055 20.88C6.23126 19.7591 6.54041 18.6838 6.87965 17.6036C6.93878 17.4144 6.99791 17.2251 7.05883 17.0301C7.88931 14.7055 9.49496 12.8105 11.1799 11.0509C11.3077 10.9102 11.4354 10.7695 11.5671 10.6245C14.8779 7.09808 19.7847 5.06012 24.4007 3.93496C24.5673 3.89425 24.7339 3.85353 24.9056 3.81158C27.6404 3.18263 30.3353 2.98679 33.1292 3.00068Z" fill="white"/>
<path d="M44.1397 20.4153C44.9544 20.8355 45.4344 21.2671 45.7867 22.1087C46.0293 23.1349 46.0211 23.8089 45.582 24.7708C45.1035 25.4726 44.7282 25.8853 43.9438 26.2042C42.9213 26.3493 42.1179 26.3171 41.1921 25.8458C40.2556 25.0235 39.9202 24.4587 39.8235 23.2102C39.8664 22.3679 40.1494 21.7443 40.6674 21.0848C41.6618 20.1933 42.8845 19.9468 44.1397 20.4153Z" fill="white"/>
<path d="M23.8759 20.2657C24.971 20.6658 25.6076 21.2716 26.1285 22.3134C26.2941 23.6467 26.1081 24.5104 25.3094 25.5898C24.5137 26.3373 23.621 26.307 22.5777 26.2761C21.5886 26.1454 21.0605 25.6754 20.4204 24.9499C20.0049 23.8882 19.9973 22.7799 20.4332 21.7247C21.4488 20.534 22.3196 20.106 23.8759 20.2657Z" fill="white"/>
<path d="M33.9098 20.2657C34.8582 20.7847 35.6116 21.2755 35.9576 22.3135C36.065 23.3362 36.0702 24.1318 35.612 25.0651C34.9898 25.7546 34.5762 26.1493 33.6299 26.2618C32.6072 26.2982 31.851 26.279 31.043 25.5899C30.2474 24.6838 29.9552 24.172 29.9751 22.947C30.0708 22.0144 30.4716 21.4393 31.1454 20.8161C32.0164 20.2281 32.8805 20.1215 33.9098 20.2657Z" fill="white"/>
</svg>
