<svg width="312" height="74" viewBox="0 0 312 74" fill="none" xmlns="http://www.w3.org/2000/svg">
<path d="M93.3874 8.36196C94.0647 8.36907 94.7415 8.36696 95.4189 8.36381C99.6635 8.36857 103.525 8.96209 107.505 10.4278C107.512 11.3478 107.517 12.2679 107.52 13.188C107.522 13.4448 107.525 13.7016 107.527 13.9662C107.532 15.6476 107.445 17.2963 107.258 18.9676C105.935 18.8276 104.712 18.5984 103.426 18.2509C98.2247 16.9279 92.3864 16.5405 87.234 18.2356C86.9331 19.4236 86.7443 20.7616 87.1835 21.9312C87.746 22.7857 88.7529 22.909 89.7061 23.1155C91.4375 23.4006 93.1857 23.5819 94.9289 23.7808C104.368 24.8706 104.368 24.8706 107.011 27.9954C109.14 31.3056 109.478 35.1202 108.71 38.9295C108.026 41.5 106.58 43.6825 104.249 45.0456C100.075 47.26 95.6088 47.6132 90.9576 47.5913C90.7704 47.591 90.5832 47.5907 90.3904 47.5904C78.6229 47.5555 78.6229 47.5555 76.8514 45.8071C76.8295 45.1565 76.8229 44.5123 76.8273 43.8618C76.8276 43.6672 76.828 43.4726 76.8283 43.272C76.8297 42.648 76.8328 42.024 76.8359 41.3999C76.8372 40.9779 76.8383 40.5558 76.8393 40.1337C76.8421 39.0969 76.8463 38.0601 76.8514 37.0233C78.0663 37.1853 79.2062 37.4238 80.3895 37.74C84.2564 38.6853 88.3192 38.8287 92.2863 38.6855C92.5097 38.6782 92.7332 38.6709 92.9633 38.6634C94.8485 38.5645 96.5736 38.0984 98.3583 37.5112C98.6362 36.7969 98.6532 36.075 98.6673 35.3153C98.6737 35.109 98.6801 34.9026 98.6866 34.69C98.586 33.9525 98.3679 33.6679 97.8639 33.1193C95.6062 32.0772 92.7747 32.0931 90.3194 31.8618C86.2195 31.4693 81.7614 30.9279 78.829 27.7514C77.1228 25.413 76.7258 22.7452 76.7587 19.9283C76.7558 19.6816 76.753 19.4348 76.75 19.1806C76.7606 16.4735 77.4242 14.1249 79.308 12.1119C83.0296 8.60264 88.4912 8.30616 93.3874 8.36196Z" fill="#01162F"/>
<path d="M172.952 19.02C175.403 20.936 176.187 23.6248 176.624 26.5674C176.817 28.4038 176.783 30.2429 176.771 32.0871C176.77 32.5202 176.769 32.9533 176.769 33.3864C176.767 34.5156 176.762 35.6447 176.757 36.7738C176.751 38.1344 176.748 39.4949 176.745 40.8555C176.741 42.9127 176.731 44.9698 176.723 47.0271C173.459 47.0271 170.196 47.0271 166.834 47.0271C166.687 45.7203 166.556 44.5433 166.548 43.2504C166.546 42.9597 166.543 42.6689 166.54 42.3694C166.539 42.0621 166.537 41.7547 166.535 41.4381C166.53 40.9459 166.525 40.4538 166.519 39.9616C166.506 38.7583 166.495 37.5549 166.488 36.3515C166.484 35.6731 166.478 34.9947 166.469 34.3164C166.462 33.6806 166.457 33.0449 166.455 32.4091C166.441 29.7059 166.441 29.7059 165.249 27.3453C164.164 26.444 162.625 26.4358 161.271 26.4724C160.143 26.5805 159.106 26.7658 158.343 27.6495C157.501 29.0167 157.41 30.3121 157.39 31.8754C157.387 32.0397 157.385 32.2041 157.382 32.3735C157.375 32.9134 157.368 33.4534 157.362 33.9933C157.357 34.3691 157.352 34.7448 157.347 35.1205C157.333 36.1068 157.321 37.0932 157.309 38.0796C157.297 39.0871 157.283 40.0946 157.269 41.1021C157.243 43.0771 157.217 45.0521 157.193 47.0271C155.79 47.0331 154.386 47.0375 152.982 47.0405C152.504 47.0417 152.026 47.0434 151.548 47.0455C150.863 47.0484 150.178 47.0498 149.492 47.0509C149.17 47.0528 149.17 47.0528 148.841 47.0547C148.329 47.0548 147.817 47.0422 147.305 47.0271C146.905 46.6318 147.027 46.1994 147.026 45.6531C147.026 45.4088 147.025 45.1645 147.024 44.9128C147.025 44.6426 147.025 44.3723 147.026 44.0939C147.025 43.8111 147.025 43.5282 147.025 43.2368C147.023 42.2966 147.024 41.3565 147.025 40.4163C147.025 39.7663 147.025 39.1162 147.024 38.4662C147.024 37.1017 147.024 35.7373 147.026 34.3728C147.027 32.7932 147.027 31.2136 147.025 29.634C147.024 28.28 147.024 26.9261 147.025 25.5722C147.025 24.7625 147.025 23.9529 147.024 23.1432C147.024 22.2411 147.025 21.339 147.026 20.4368C147.025 20.1666 147.025 19.8963 147.024 19.6179C147.025 19.3736 147.026 19.1293 147.026 18.8776C147.027 18.6641 147.027 18.4505 147.027 18.2304C147.058 17.7476 147.058 17.7476 147.305 17.5036C148 17.482 148.689 17.4755 149.384 17.4798C149.592 17.4802 149.8 17.4805 150.015 17.4809C150.682 17.4822 151.35 17.4853 152.017 17.4884C152.469 17.4896 152.92 17.4907 153.372 17.4917C154.481 17.4942 155.59 17.499 156.699 17.5036C156.862 18.8725 157.025 20.2413 157.193 21.6516C157.52 21.249 157.846 20.8464 158.182 20.4316C161.909 16.5195 168.431 16.1049 172.952 19.02Z" fill="#01162F"/>
<path d="M257.93 17.6562C258.251 17.6533 258.571 17.6505 258.902 17.6476C262.792 17.6591 266.646 18.338 269.579 21.0263C269.87 21.3358 269.87 21.3358 270.166 21.6516C270.329 21.8227 270.493 21.9938 270.661 22.1701C273.836 26.6749 273.793 32.7783 272.974 37.9994C272.396 41.1744 270.875 43.9308 268.189 45.8071C265.475 47.3727 262.391 47.8702 259.289 48.0031C259.077 48.0132 258.865 48.0232 258.647 48.0336C254.443 48.1337 249.91 47.5473 246.526 44.9026C243.702 42.2067 242.766 38.2673 242.652 34.5109C242.647 33.9861 242.647 33.4612 242.649 32.9364C242.65 32.6599 242.651 32.3834 242.652 32.0986C242.711 27.7512 243.493 23.9831 246.588 20.7442C249.607 17.9428 253.997 17.6215 257.93 17.6562ZM253.387 27.3855C251.787 29.6209 251.895 32.6559 252.199 35.2534C252.461 36.6382 253.021 37.6474 254.021 38.6703C255.898 39.6719 258.288 39.7122 260.34 39.2803C261.526 38.8902 262.365 38.5935 263.061 37.5189C263.776 35.9602 263.833 34.406 263.847 32.7229C263.85 32.5076 263.852 32.2923 263.855 32.0705C263.831 30.3099 263.554 28.7177 262.457 27.294C259.949 25.4239 255.813 25.3038 253.387 27.3855Z" fill="#398611"/>
<path d="M110.966 17.5035C114.637 17.5035 118.308 17.5035 122.09 17.5035C122.937 19.5931 123.69 21.6799 124.392 23.8169C124.481 24.086 124.481 24.086 124.572 24.3605C125.676 27.7209 126.585 31.1042 127.385 34.548C127.479 35.0628 127.479 35.0628 127.776 35.3152C127.807 35.1677 127.837 35.0203 127.869 34.8684C128.615 31.3477 129.54 27.9171 130.634 24.4879C130.691 24.3074 130.748 24.1269 130.807 23.9409C130.975 23.4142 131.144 22.8882 131.315 22.3625C131.413 22.0604 131.511 21.7584 131.612 21.4471C132.093 20.1129 132.662 18.8109 133.214 17.5035C136.722 17.5035 140.23 17.5035 143.844 17.5035C143.672 18.5209 143.532 19.2388 143.171 20.1643C143.083 20.3924 142.995 20.6205 142.904 20.8555C142.759 21.224 142.759 21.224 142.611 21.6C142.51 21.8611 142.408 22.1223 142.304 22.3913C141.969 23.2534 141.632 24.1146 141.295 24.9759C141.059 25.5821 140.823 26.1884 140.587 26.7947C140.039 28.2028 139.49 29.6103 138.94 31.0176C138.337 32.5618 137.736 34.1067 137.135 35.6516C136.327 37.7282 135.517 39.8044 134.707 41.8802C133.882 43.9949 133.059 46.1105 132.238 48.2267C131.836 49.2635 131.433 50.3 131.03 51.3366C130.808 51.9072 130.587 52.4779 130.366 53.0486C130.061 53.8358 129.755 54.6227 129.449 55.4096C129.358 55.6455 129.267 55.8815 129.173 56.1246C129.09 56.3381 129.007 56.5517 128.921 56.7717C128.849 56.9583 128.776 57.1449 128.702 57.3371C128.517 57.7628 128.517 57.7628 128.27 58.0068C127.521 58.0284 126.778 58.0349 126.029 58.0306C125.804 58.0303 125.58 58.0299 125.348 58.0296C124.628 58.0282 123.907 58.0251 123.187 58.022C122.7 58.0208 122.213 58.0197 121.726 58.0187C120.529 58.016 119.332 58.0118 118.135 58.0068C118.284 56.786 118.847 55.8295 119.412 54.7557C121.932 50.2451 121.932 50.2451 122.451 45.3142C121.994 43.9788 121.3 42.7717 120.587 41.5539C119.738 40.0542 119.167 38.4217 118.543 36.822C118.137 35.7877 117.715 34.7593 117.296 33.7302C116.082 30.7424 114.874 27.7523 113.67 24.7608C113.433 24.1729 113.196 23.5852 112.959 22.9976C112.626 22.1737 112.294 21.3493 111.962 20.5249C111.861 20.2755 111.76 20.0261 111.656 19.7692C111.565 19.5415 111.474 19.3138 111.38 19.0791C111.299 18.8799 111.219 18.6807 111.136 18.4755C110.966 17.9915 110.966 17.9915 110.966 17.5035Z" fill="#01162F"/>
<path d="M277.582 17.9916C280.846 17.9916 284.109 17.9916 287.471 17.9916C287.483 19.1786 287.495 20.3656 287.507 21.5886C287.516 22.3447 287.525 23.1009 287.534 23.857C287.549 25.0547 287.564 26.2524 287.575 27.4502C287.584 28.4169 287.596 29.3835 287.609 30.3501C287.613 30.7172 287.617 31.0843 287.62 31.4514C287.514 34.8192 287.514 34.8192 288.645 37.8867C290.406 39.0157 292.769 38.7858 294.749 38.4624C295.545 38.1865 295.867 37.9389 296.37 37.2672C297.045 35.3447 296.952 33.3459 296.967 31.3351C296.971 30.9495 296.976 30.5638 296.981 30.1782C296.994 29.169 297.004 28.1598 297.013 27.1506C297.025 25.9367 297.04 24.7227 297.055 23.5088C297.076 21.6697 297.094 19.8307 297.112 17.9916C300.375 17.9916 303.638 17.9916 307 17.9916C307 27.6538 307 37.316 307 47.271C303.9 47.271 300.8 47.271 297.606 47.271C297.219 46.889 297.208 46.4353 297.096 45.9138C297.031 45.6114 297.031 45.6114 296.964 45.3029C296.931 45.1472 296.898 44.9915 296.865 44.8311C296.763 44.9254 296.661 45.0198 296.555 45.117C293.862 47.5146 290.762 48.0225 287.223 48.003C284.807 47.8388 282.056 47.3429 280.302 45.5631C278.332 43.1243 277.54 40.4352 277.554 37.3536C277.554 37.144 277.554 36.9344 277.554 36.7185C277.554 36.028 277.556 35.3376 277.558 34.6471C277.559 34.1675 277.559 33.6878 277.559 33.2082C277.56 31.9474 277.563 30.6867 277.565 29.426C277.568 27.9124 277.57 26.3988 277.571 24.8852C277.573 22.5873 277.578 20.2895 277.582 17.9916Z" fill="#398611"/>
<path d="M206.634 9.20789C210.224 9.20789 213.813 9.20789 217.511 9.20789C218.298 10.9157 219.04 12.5834 219.69 14.3375C219.815 14.6698 219.815 14.6698 219.942 15.0089C220.204 15.708 220.465 16.4076 220.725 17.1072C221.07 18.0293 221.415 18.9513 221.76 19.8732C221.842 20.0926 221.925 20.3121 222.009 20.5382C222.81 23.3619 222.81 23.3619 224.186 25.7996C224.25 25.6238 224.315 25.4481 224.381 25.267C225.805 21.3805 227.27 17.512 228.79 13.6608C228.867 13.4658 228.944 13.2707 229.023 13.0698C229.242 12.5156 229.461 11.9616 229.681 11.4077C229.746 11.2413 229.812 11.0748 229.88 10.9034C230.337 9.75362 230.337 9.75362 230.613 9.20789C234.203 9.20789 237.792 9.20789 241.49 9.20789C241.253 10.3798 240.861 11.3118 240.339 12.3732C240.201 12.6597 240.201 12.6597 240.059 12.9521C239.755 13.5803 239.448 14.2076 239.142 14.835C238.929 15.2742 238.716 15.7135 238.503 16.1528C238.066 17.0559 237.628 17.9587 237.189 18.8613C236.591 20.094 235.997 21.3284 235.404 22.5638C235.314 22.7508 235.224 22.9377 235.132 23.1304C234.689 24.0529 234.25 24.9768 233.817 25.9038C233.079 27.48 232.339 29.0183 231.431 30.5089C228.413 35.6775 229.009 41.4791 229.13 47.2712C225.785 47.2712 222.441 47.2712 218.995 47.2712C219.031 46.5037 219.068 45.7363 219.106 44.9456C219.34 37.7349 218.271 32.6802 214.68 26.4336C213.773 24.8423 213.007 23.1882 212.237 21.5295C211.844 20.6851 211.442 19.8448 211.041 19.0039C210.884 18.675 210.728 18.3461 210.572 18.0172C210.16 17.1513 209.747 16.286 209.334 15.4209C209.006 14.7337 208.678 14.0462 208.351 13.3586C208.197 13.0341 208.042 12.7097 207.887 12.3855C207.674 11.9418 207.463 11.4974 207.252 11.0531C207.073 10.6761 207.073 10.6761 206.889 10.2916C206.634 9.69588 206.634 9.69588 206.634 9.20789Z" fill="#398611"/>
<path d="M205.893 18.4797C205.893 21.2978 205.893 24.116 205.893 27.0195C203.174 26.7755 203.174 26.7755 202.407 26.6983C197.122 26.1222 197.122 26.1222 192.281 27.7973C191.137 29.4363 190.941 30.9537 190.968 32.8907C190.965 33.1003 190.962 33.3099 190.959 33.5259C190.965 34.8842 191.185 35.8105 191.802 37.0233C191.884 37.2649 191.965 37.5064 192.049 37.7553C196.188 38.6788 200.014 38.553 204.222 38.1516C204.468 38.1287 204.713 38.1058 204.966 38.0822C205.186 38.0605 205.407 38.0388 205.634 38.0164C205.801 38.0108 205.968 38.0051 206.14 37.9993C206.387 38.2433 206.387 38.2433 206.415 39.0101C206.415 39.3496 206.414 39.689 206.411 40.0285C206.411 40.2068 206.411 40.3852 206.41 40.569C206.409 41.1408 206.406 41.7126 206.403 42.2845C206.402 42.6713 206.4 43.0581 206.399 43.4449C206.397 44.395 206.392 45.3451 206.387 46.2952C203.175 47.4289 199.988 47.5615 196.601 47.5875C196.112 47.5913 195.623 47.5978 195.134 47.6044C191.251 47.6017 187.348 47.0159 184.386 44.3432C180.781 40.6254 180.801 35.173 180.903 30.3417C181.035 26.516 182.009 22.869 184.905 20.1972C190.406 15.6579 199.482 16.8978 205.893 18.4797Z" fill="#01162F"/>
<path d="M31.2043 3.00077C31.3846 3.0012 31.5648 3.00162 31.7505 3.00206C34.5888 3.01326 37.3322 3.15555 40.1105 3.77085C40.292 3.80951 40.4736 3.84816 40.6607 3.88799C47.8171 5.45123 55.0754 8.91138 59.174 15.1621C61.0569 18.1564 62.5058 21.8072 62.0151 25.3911C61.5181 26.4267 60.9863 27.0709 59.8953 27.4833C58.7434 27.6068 57.6958 27.6395 56.6126 27.2073C55.4765 26.2218 55.0669 25.4286 54.8313 23.9526C54.139 20.1177 52.2081 17.3018 49.0608 14.9297C41.9507 10.1343 32.7928 9.20882 24.4814 10.6277C19.228 11.6178 14.4798 13.7392 10.6687 17.4869C10.5366 17.6119 10.4045 17.7368 10.2685 17.8656C8.0098 20.2002 7.2515 23.1207 7.30588 26.2429C7.36376 27.5553 7.71353 28.6388 8.31334 29.8081C8.46318 30.1003 8.46318 30.1003 8.61604 30.3984C11.2587 35.0919 16.2093 37.9127 21.2989 39.4089C22.1472 39.6411 22.9998 39.8468 23.8586 40.037C24.0878 40.0885 24.3171 40.1401 24.5532 40.1932C25.7212 40.4153 26.8884 40.5204 28.0734 40.6073C28.4522 40.6355 28.4522 40.6355 28.8387 40.6643C29.3483 40.7008 29.8581 40.7342 30.3681 40.7641C32.8632 40.9356 32.8632 40.9356 33.8408 42.0277C34.8968 43.3395 35.7108 44.8031 36.548 46.2557C37.673 48.1819 38.795 50.0861 40.1105 51.8932C40.255 52.0928 40.3995 52.2924 40.5484 52.498C41.4311 53.6709 42.1044 54.5003 43.5993 54.8282C45.1898 54.5204 46.1777 53.2211 47.0587 51.9514C49.6352 47.6881 51.0507 42.6702 52.3463 37.912C52.4542 37.5167 52.4542 37.5167 52.5643 37.1135C52.6979 36.6161 52.8281 36.1178 52.954 35.6185C53.366 34.0696 53.791 32.9678 55.1948 32.0511C56.1977 31.7231 57.2611 31.7113 58.2549 32.0765C59.0652 32.5078 59.7266 32.9401 60.1309 33.7602C60.6369 35.8807 59.9379 37.7745 59.3359 39.8045C59.2272 40.1796 59.1185 40.5548 59.0099 40.9299C57.7139 45.3598 56.2634 49.7 54.007 53.753C53.8773 53.9997 53.7477 54.2463 53.6141 54.5004C51.8768 57.6652 49.251 60.4282 45.7633 61.6572C43.2234 62.2711 41.0104 61.7789 38.8003 60.4658C34.9004 57.8636 31.1482 52.7044 29.5578 48.3535C29.2983 47.8785 29.2983 47.8785 28.6739 47.7724C28.4217 47.7471 28.1695 47.7219 27.9096 47.696C27.6282 47.6643 27.3468 47.6325 27.0569 47.5999C26.7545 47.5687 26.452 47.5374 26.1403 47.5053C17.9432 46.5472 9.74797 43.395 4.30926 37.0148C1.18769 32.9789 -0.356563 28.3775 0.0696474 23.2988C0.265993 22.0262 0.621587 20.8054 1.01178 19.5792C1.07979 19.3643 1.14781 19.1494 1.21788 18.9281C2.17311 16.289 4.01995 14.1376 5.958 12.14C6.10495 11.9802 6.2519 11.8205 6.40331 11.6559C10.2115 7.65245 15.8553 5.3388 21.1647 4.06144C21.3563 4.01522 21.548 3.96899 21.7455 3.92137C24.8911 3.20733 27.9908 2.98501 31.2043 3.00077Z" fill="#021730"/>
<path d="M43.8688 22.7712C44.8058 23.2482 45.358 23.7382 45.7632 24.6937C46.0422 25.8586 46.0327 26.6239 45.5277 27.7158C44.9773 28.5126 44.5456 28.9812 43.6434 29.3432C42.4674 29.5079 41.5432 29.4714 40.4784 28.9363C39.4011 28.0028 39.0154 27.3616 38.9042 25.9441C38.9535 24.9879 39.279 24.2799 39.8748 23.5313C41.0187 22.5192 42.425 22.2393 43.8688 22.7712Z" fill="#398611"/>
<path d="M20.5612 22.6014C21.8206 23.0556 22.5529 23.7434 23.152 24.9262C23.3426 26.4398 23.1286 27.4203 22.2099 28.6458C21.2947 29.4943 20.268 29.46 19.0679 29.4249C17.9303 29.2765 17.3228 28.7429 16.5865 27.9193C16.1087 26.714 16.0999 25.4557 16.6012 24.2578C17.7694 22.906 18.771 22.4201 20.5612 22.6014Z" fill="#398611"/>
<path d="M32.1023 22.6013C33.1932 23.1904 34.0597 23.7476 34.4576 24.926C34.5811 26.0871 34.5872 26.9903 34.0602 28.0499C33.3445 28.8326 32.8687 29.2808 31.7803 29.4084C30.604 29.4498 29.7342 29.4281 28.8048 28.6456C27.8897 27.617 27.5536 27.036 27.5765 25.6453C27.6866 24.5865 28.1476 23.9336 28.9226 23.2261C29.9244 22.5586 30.9184 22.4375 32.1023 22.6013Z" fill="#398611"/>
</svg>
