<svg width="412" height="132" viewBox="0 0 412 132" fill="none" xmlns="http://www.w3.org/2000/svg">
<path d="M108.146 22.0076C109.048 22.0172 109.949 22.0143 110.85 22.0101C116.5 22.0165 121.641 22.8169 126.938 24.7936C126.948 26.0344 126.954 27.2752 126.959 28.516C126.961 28.8624 126.964 29.2087 126.967 29.5656C126.974 31.8331 126.858 34.0566 126.609 36.3106C124.849 36.1217 123.221 35.8127 121.509 35.344C114.585 33.5599 106.814 33.0373 99.9554 35.3234C99.5548 36.9255 99.3034 38.73 99.888 40.3074C100.637 41.4598 101.977 41.6261 103.246 41.9046C105.551 42.289 107.878 42.5336 110.198 42.8018C122.762 44.2715 122.762 44.2715 126.28 48.4857C129.114 52.9499 129.565 58.0944 128.542 63.2316C127.632 66.6983 125.707 69.6417 122.604 71.4799C117.049 74.4664 111.103 74.9427 104.912 74.9131C104.663 74.9127 104.413 74.9124 104.157 74.912C88.493 74.8649 88.493 74.8649 86.135 72.5069C86.1058 71.6295 86.097 70.7608 86.1028 69.8834C86.1033 69.621 86.1038 69.3585 86.1042 69.0881C86.1061 68.2465 86.1102 67.4049 86.1144 66.5633C86.116 65.9941 86.1175 65.4249 86.1189 64.8557C86.1225 63.4574 86.1282 62.0591 86.135 60.6608C87.7522 60.8794 89.2694 61.2011 90.8446 61.6274C95.9918 62.9024 101.4 63.0956 106.68 62.9025C106.978 62.8927 107.275 62.8829 107.582 62.8727C110.091 62.7394 112.387 62.1108 114.763 61.3189C115.133 60.3555 115.156 59.382 115.174 58.3574C115.183 58.0792 115.191 57.8009 115.2 57.5142C115.066 56.5196 114.776 56.1358 114.105 55.3959C111.1 53.9904 107.331 54.0118 104.062 53.6999C98.6049 53.1707 92.6707 52.4405 88.7674 48.1566C86.4963 45.0029 85.9678 41.4052 86.0116 37.6063C86.0078 37.2735 86.0039 36.9407 86 36.5979C86.0141 32.9471 86.8975 29.7796 89.405 27.0648C94.3588 22.3322 101.629 21.9323 108.146 22.0076Z" fill="white"/>
<path d="M214.055 36.3812C217.317 38.9651 218.361 42.5914 218.943 46.5598C219.199 49.0364 219.154 51.5166 219.138 54.0038C219.137 54.5879 219.136 55.172 219.136 55.7561C219.133 57.2789 219.127 58.8016 219.119 60.3244C219.111 62.1592 219.108 63.9941 219.105 65.8289C219.098 68.6034 219.086 71.3777 219.074 74.1521C214.731 74.1521 210.387 74.1521 205.912 74.1521C205.716 72.3898 205.542 70.8025 205.531 69.0588C205.528 68.6667 205.524 68.2746 205.521 67.8707C205.518 67.4562 205.516 67.0417 205.513 66.6147C205.507 65.951 205.5 65.2872 205.492 64.6235C205.475 63.0006 205.46 61.3777 205.451 59.7548C205.445 58.8399 205.437 57.925 205.426 57.0102C205.416 56.1528 205.41 55.2955 205.407 54.4381C205.388 50.7924 205.388 50.7924 203.802 47.6089C202.357 46.3934 200.309 46.3823 198.507 46.4316C197.005 46.5774 195.625 46.8273 194.61 48.0191C193.489 49.8629 193.367 51.6099 193.34 53.7182C193.337 53.9399 193.334 54.1616 193.33 54.39C193.32 55.1182 193.312 55.8464 193.304 56.5746C193.297 57.0813 193.29 57.588 193.283 58.0947C193.265 59.4249 193.248 60.7551 193.233 62.0853C193.216 63.4441 193.198 64.8028 193.18 66.1616C193.144 68.8251 193.111 71.4886 193.079 74.1521C191.21 74.1602 189.342 74.1662 187.473 74.1702C186.837 74.1719 186.201 74.1741 185.565 74.177C184.652 74.1809 183.74 74.1828 182.828 74.1843C182.398 74.1868 182.398 74.1868 181.96 74.1894C181.279 74.1895 180.598 74.1726 179.916 74.1521C179.383 73.6191 179.546 73.0359 179.546 72.2991C179.545 71.9697 179.544 71.6402 179.543 71.3008C179.543 70.9363 179.544 70.5719 179.545 70.1964C179.544 69.8149 179.544 69.4335 179.543 69.0405C179.542 67.7726 179.543 66.5047 179.544 65.2367C179.543 64.3601 179.543 63.4834 179.543 62.6067C179.542 60.7666 179.543 58.9264 179.544 57.0863C179.546 54.956 179.546 52.8257 179.544 50.6954C179.542 48.8695 179.542 47.0435 179.543 45.2176C179.543 44.1257 179.543 43.0338 179.542 41.9419C179.542 40.7252 179.543 39.5086 179.545 38.292C179.544 37.9275 179.543 37.5631 179.543 37.1876C179.544 36.8581 179.545 36.5286 179.546 36.1892C179.546 35.9012 179.546 35.6131 179.546 35.3164C179.587 34.6653 179.587 34.6653 179.916 34.3362C180.842 34.307 181.759 34.2983 182.684 34.3041C182.961 34.3045 183.238 34.305 183.523 34.3055C184.412 34.3073 185.3 34.3115 186.189 34.3156C186.79 34.3173 187.391 34.3188 187.992 34.3201C189.468 34.3235 190.944 34.3299 192.421 34.3362C192.638 36.1822 192.855 38.0282 193.079 39.9302C193.513 39.3872 193.947 38.8443 194.395 38.2849C199.356 33.009 208.037 32.4498 214.055 36.3812Z" fill="white"/>
<path d="M327.169 34.5418C327.597 34.538 328.024 34.5342 328.464 34.5303C333.642 34.5458 338.772 35.4614 342.676 39.0869C343.063 39.5043 343.063 39.5043 343.458 39.9302C343.675 40.1609 343.892 40.3917 344.116 40.6294C348.342 46.7047 348.285 54.9359 347.196 61.9772C346.426 66.259 344.401 69.9764 340.825 72.5068C337.213 74.6182 333.108 75.2891 328.979 75.4683C328.697 75.4819 328.415 75.4955 328.124 75.5095C322.529 75.6445 316.494 74.8536 311.99 71.287C308.231 67.6512 306.985 62.3384 306.833 57.2725C306.827 56.5647 306.826 55.8569 306.83 55.1491C306.831 54.7762 306.832 54.4034 306.834 54.0192C306.912 48.1563 307.953 43.0745 312.073 38.7065C316.092 34.9283 321.934 34.4951 327.169 34.5418ZM321.123 47.663C318.993 50.6777 319.137 54.7708 319.541 58.2738C319.89 60.1414 320.636 61.5024 321.966 62.8819C324.465 64.2327 327.647 64.2871 330.378 63.7045C331.956 63.1785 333.074 62.7784 334 61.3292C334.951 59.227 335.028 57.131 335.046 54.8611C335.05 54.5708 335.053 54.2805 335.056 53.9814C335.025 51.6069 334.656 49.4596 333.195 47.5396C329.857 45.0176 324.351 44.8556 321.123 47.663Z" fill="white"/>
<path d="M131.545 34.3363C136.431 34.3363 141.318 34.3363 146.353 34.3363C147.48 37.1543 148.483 39.9687 149.417 42.8507C149.535 43.2136 149.535 43.2136 149.656 43.5838C151.126 48.1157 152.336 52.6784 153.4 57.3228C153.526 58.0171 153.526 58.0171 153.921 58.3575C153.962 58.1586 154.003 57.9598 154.045 57.7549C155.038 53.0068 156.269 48.3802 157.726 43.7556C157.802 43.5121 157.878 43.2687 157.956 43.0179C158.179 42.3075 158.405 41.5982 158.632 40.8892C158.762 40.4818 158.893 40.0744 159.027 39.6547C159.668 37.8553 160.425 36.0994 161.16 34.3363C165.829 34.3363 170.499 34.3363 175.31 34.3363C175.081 35.7083 174.894 36.6765 174.413 37.9246C174.296 38.2322 174.179 38.5399 174.058 38.8569C173.865 39.3538 173.865 39.3538 173.668 39.8609C173.533 40.213 173.398 40.5652 173.259 40.9281C172.813 42.0906 172.365 43.2521 171.916 44.4137C171.602 45.2313 171.288 46.0489 170.974 46.8666C170.245 48.7655 169.514 50.6637 168.782 52.5616C167.979 54.6442 167.179 56.7276 166.379 58.8112C165.303 61.6118 164.226 64.4117 163.147 67.2112C162.049 70.0631 160.953 72.9162 159.86 75.7702C159.325 77.1684 158.788 78.5663 158.252 79.9643C157.957 80.7338 157.663 81.5034 157.369 82.2731C156.963 83.3348 156.556 84.396 156.148 85.4572C156.027 85.7754 155.906 86.0936 155.781 86.4214C155.67 86.7094 155.559 86.9975 155.445 87.2942C155.349 87.5458 155.252 87.7975 155.153 88.0567C154.908 88.6308 154.908 88.6308 154.579 88.9598C153.582 88.989 152.593 88.9977 151.596 88.9919C151.297 88.9915 150.998 88.991 150.69 88.9905C149.731 88.9887 148.772 88.9846 147.813 88.9804C147.164 88.9787 146.516 88.9772 145.867 88.9759C144.274 88.9722 142.681 88.9666 141.088 88.9598C141.287 87.3135 142.035 86.0235 142.788 84.5754C146.142 78.4922 146.142 78.4922 146.833 71.8424C146.224 70.0414 145.3 68.4135 144.352 66.7711C143.222 64.7486 142.462 62.5469 141.631 60.3896C141.09 58.9946 140.529 57.6078 139.971 56.2199C138.355 52.1904 136.747 48.158 135.144 44.1236C134.829 43.3308 134.514 42.5382 134.197 41.7457C133.754 40.6346 133.313 39.5228 132.871 38.411C132.737 38.0747 132.603 37.7383 132.464 37.3918C132.342 37.0847 132.221 36.7776 132.096 36.4612C131.989 36.1925 131.882 35.9239 131.772 35.6471C131.545 34.9944 131.545 34.9944 131.545 34.3363Z" fill="white"/>
<path d="M353.329 34.9944C357.673 34.9944 362.017 34.9944 366.492 34.9944C366.508 36.5952 366.524 38.1961 366.541 39.8454C366.552 40.8652 366.564 41.8849 366.577 42.9046C366.596 44.5199 366.615 46.1352 366.631 47.7505C366.643 49.0542 366.658 50.3578 366.675 51.6614C366.681 52.1564 366.686 52.6515 366.69 53.1466C366.549 57.6885 366.549 57.6885 368.055 61.8254C370.4 63.3479 373.545 63.038 376.18 62.6018C377.239 62.2297 377.668 61.8958 378.338 60.9899C379.237 58.3971 379.112 55.7015 379.132 52.9897C379.138 52.4697 379.145 51.9496 379.151 51.4296C379.168 50.0686 379.181 48.7075 379.194 47.3465C379.209 45.7093 379.229 44.0721 379.249 42.435C379.278 39.9548 379.301 37.4746 379.325 34.9944C383.669 34.9944 388.012 34.9944 392.487 34.9944C392.487 48.0251 392.487 61.0557 392.487 74.4813C388.361 74.4813 384.235 74.4813 379.983 74.4813C379.468 73.966 379.453 73.3542 379.304 72.6509C379.217 72.243 379.217 72.243 379.128 71.8269C379.085 71.617 379.041 71.407 378.996 71.1907C378.86 71.3179 378.724 71.4452 378.585 71.5763C374.999 74.8098 370.872 75.4947 366.163 75.4684C362.946 75.247 359.285 74.5782 356.949 72.1779C354.328 68.8889 353.274 65.2624 353.292 61.1065C353.292 60.8238 353.292 60.5411 353.292 60.2499C353.292 59.3187 353.295 58.3876 353.297 57.4564C353.298 56.8095 353.298 56.1627 353.299 55.5158C353.3 53.8155 353.303 52.1153 353.307 50.4151C353.311 48.3738 353.312 46.3326 353.314 44.2913C353.317 41.1923 353.324 38.0934 353.329 34.9944Z" fill="white"/>
<path d="M258.89 23.1483C263.668 23.1483 268.446 23.1483 273.369 23.1483C274.415 25.4515 275.403 27.7006 276.268 30.0662C276.434 30.5144 276.434 30.5144 276.604 30.9717C276.952 31.9145 277.299 32.858 277.646 33.8015C278.105 35.0451 278.565 36.2884 279.024 37.5317C279.134 37.8277 279.243 38.1236 279.356 38.4286C280.422 42.2368 280.422 42.2368 282.253 45.5242C282.339 45.2872 282.424 45.0502 282.512 44.806C284.408 39.5646 286.359 34.3474 288.382 29.1536C288.484 28.8906 288.587 28.6276 288.692 28.3566C288.983 27.6092 289.275 26.862 289.567 26.115C289.654 25.8906 289.742 25.6661 289.832 25.4349C290.441 23.8843 290.441 23.8843 290.809 23.1483C295.586 23.1483 300.364 23.1483 305.287 23.1483C304.971 24.7287 304.449 25.9857 303.755 27.4171C303.57 27.8035 303.57 27.8035 303.382 28.1978C302.977 29.0451 302.569 29.8911 302.161 30.7372C301.877 31.3295 301.594 31.9219 301.311 32.5144C300.728 33.7323 300.145 34.9498 299.562 36.1671C298.766 37.8296 297.974 39.4943 297.185 41.1603C297.066 41.4125 296.946 41.6647 296.823 41.9245C296.234 43.1686 295.649 44.4146 295.073 45.6648C294.091 47.7904 293.105 49.865 291.897 51.8753C287.879 58.8458 288.672 66.67 288.834 74.4813C284.382 74.4813 279.93 74.4813 275.343 74.4813C275.392 73.4463 275.44 72.4113 275.491 71.3449C275.803 61.6205 274.379 54.8036 269.599 46.3793C268.392 44.2332 267.373 42.0024 266.348 39.7655C265.824 38.6267 265.289 37.4934 264.755 36.3595C264.547 35.9159 264.339 35.4724 264.131 35.0288C263.583 33.861 263.033 32.694 262.483 31.5273C262.046 30.6006 261.611 29.6734 261.175 28.7461C260.97 28.3084 260.764 27.8709 260.557 27.4337C260.274 26.8353 259.993 26.2361 259.713 25.6368C259.473 25.1284 259.473 25.1284 259.229 24.6098C258.89 23.8064 258.89 23.8064 258.89 23.1483Z" fill="white"/>
<path d="M257.903 35.6524C257.903 39.453 257.903 43.2537 257.903 47.1694C254.283 46.8404 254.283 46.8404 253.263 46.7363C246.227 45.9592 246.227 45.9592 239.784 48.2183C238.262 50.4287 238.001 52.4751 238.036 55.0874C238.032 55.3701 238.028 55.6528 238.025 55.9441C238.033 57.776 238.326 59.0251 239.147 60.6608C239.255 60.9865 239.364 61.3123 239.476 61.648C244.984 62.8934 250.077 62.7237 255.679 62.1824C256.006 62.1515 256.332 62.1207 256.669 62.0888C256.963 62.0595 257.256 62.0303 257.558 62.0001C257.781 61.9925 258.003 61.9849 258.232 61.977C258.561 62.3061 258.561 62.3061 258.598 63.3402C258.598 63.798 258.596 64.2558 258.593 64.7136C258.593 64.9541 258.592 65.1947 258.592 65.4426C258.59 66.2137 258.586 66.9849 258.582 67.7561C258.58 68.2777 258.578 68.7994 258.577 69.321C258.573 70.6024 258.568 71.8837 258.561 73.165C254.286 74.694 250.042 74.8727 245.534 74.9078C244.884 74.9129 244.233 74.9217 243.582 74.9307C238.413 74.927 233.217 74.1369 229.275 70.5325C224.476 65.5186 224.502 58.1654 224.639 51.6498C224.814 46.4903 226.111 41.5719 229.965 37.9687C237.288 31.8469 249.369 33.519 257.903 35.6524Z" fill="white"/>
<path d="M42.2805 14.0009C42.4785 14.0013 42.6765 14.0018 42.8805 14.0023C45.9986 14.0148 49.0124 14.1731 52.0646 14.858C52.264 14.901 52.4635 14.944 52.669 14.9884C60.5309 16.7283 68.5047 20.5796 73.0074 27.5369C75.076 30.8696 76.6677 34.9331 76.1286 38.922C75.5826 40.0748 74.9984 40.7918 73.7998 41.2508C72.5344 41.3882 71.3835 41.4246 70.1935 40.9435C68.9454 39.8467 68.4954 38.9639 68.2366 37.321C67.4761 33.0526 65.3548 29.9184 61.8972 27.2781C54.0862 21.9407 44.0256 20.9106 34.8947 22.4899C29.1235 23.592 23.9072 25.9531 19.7204 30.1244C19.5753 30.2635 19.4302 30.4026 19.2807 30.5459C16.7994 33.1445 15.9664 36.395 16.0261 39.8701C16.0897 41.3309 16.4739 42.5369 17.1329 43.8383C17.2975 44.1636 17.2975 44.1636 17.4654 44.4953C20.3686 49.7194 25.8072 52.859 31.3985 54.5244C32.3304 54.7828 33.2671 55.0117 34.2106 55.2235C34.4624 55.2809 34.7142 55.3382 34.9737 55.3973C36.2568 55.6446 37.5391 55.7616 38.8409 55.8582C39.2571 55.8897 39.2571 55.8897 39.6817 55.9217C40.2415 55.9623 40.8015 55.9995 41.3618 56.0328C44.1029 56.2237 44.1029 56.2237 45.1768 57.4392C46.337 58.8993 47.2312 60.5283 48.1509 62.1451C49.3868 64.289 50.6194 66.4085 52.0646 68.4199C52.2233 68.642 52.3821 68.8642 52.5457 69.0931C53.5154 70.3985 54.255 71.3217 55.8973 71.6867C57.6447 71.344 58.7299 69.8978 59.6978 68.4846C62.5282 63.7394 64.0833 58.1544 65.5066 52.8583C65.6251 52.4183 65.6251 52.4183 65.7461 51.9695C65.8929 51.4159 66.0359 50.8613 66.1743 50.3055C66.6268 48.5815 67.0937 47.3552 68.6359 46.3349C69.7377 45.9698 70.9059 45.9567 71.9977 46.3632C72.8878 46.8433 73.6145 47.3243 74.0586 48.2371C74.6145 50.5973 73.8466 52.7053 73.1853 54.9647C73.0658 55.3822 72.9464 55.7998 72.8271 56.2173C71.4033 61.1479 69.8098 65.9788 67.331 70.4899C67.1886 70.7644 67.0461 71.0389 66.8994 71.3218C64.9908 74.8443 62.1062 77.9196 58.2746 79.2875C55.4844 79.9709 53.0532 79.423 50.6252 77.9614C46.3409 75.0652 42.2188 69.3227 40.4716 64.48C40.1866 63.9513 40.1866 63.9513 39.5006 63.8332C39.2235 63.8052 38.9464 63.7771 38.6609 63.7482C38.3518 63.7129 38.0427 63.6776 37.7242 63.6412C37.3919 63.6065 37.0596 63.5717 36.7173 63.5359C27.712 62.4696 18.7089 58.9611 12.7341 51.8597C9.30477 47.3676 7.60829 42.246 8.07651 36.5933C8.29221 35.1768 8.68286 33.8181 9.11153 32.4532C9.18624 32.214 9.26096 31.9749 9.33794 31.7285C10.3873 28.7911 12.4162 26.3966 14.5453 24.1731C14.7068 23.9953 14.8682 23.8175 15.0345 23.6344C19.2181 19.1783 25.4183 16.6032 31.2511 15.1814C31.4617 15.13 31.6722 15.0785 31.8891 15.0255C35.3449 14.2308 38.7502 13.9833 42.2805 14.0009Z" fill="white"/>
<path d="M56.1935 36.006C57.2229 36.537 57.8295 37.0823 58.2747 38.1458C58.5812 39.4425 58.5708 40.2942 58.0159 41.5096C57.4113 42.3964 56.9371 42.918 55.9459 43.3209C54.654 43.5042 53.6387 43.4636 52.4689 42.868C51.2855 41.8289 50.8617 41.1153 50.7395 39.5376C50.7937 38.4733 51.1513 37.6853 51.8058 36.852C53.0624 35.7255 54.6074 35.414 56.1935 36.006Z" fill="white"/>
<path d="M30.5881 35.817C31.9717 36.3225 32.7761 37.088 33.4343 38.4045C33.6436 40.0892 33.4086 41.1806 32.3993 42.5445C31.3939 43.489 30.266 43.4508 28.9476 43.4118C27.6978 43.2466 27.0305 42.6526 26.2216 41.7359C25.6966 40.3944 25.687 38.9939 26.2378 37.6606C27.5211 36.156 28.6214 35.6152 30.5881 35.817Z" fill="white"/>
<path d="M43.2669 35.817C44.4653 36.4728 45.4173 37.0929 45.8545 38.4046C45.9901 39.6969 45.9968 40.7022 45.4178 41.8816C44.6316 42.7528 44.1089 43.2516 42.9132 43.3937C41.621 43.4397 40.6654 43.4155 39.6444 42.5446C38.6391 41.3997 38.2698 40.753 38.295 39.2051C38.4159 38.0266 38.9224 37.3 39.7738 36.5124C40.8744 35.7695 41.9663 35.6348 43.2669 35.817Z" fill="white"/>
</svg>
