<svg width="63" height="63" viewBox="0 0 63 63" fill="none" xmlns="http://www.w3.org/2000/svg">
<path d="M31.1292 5.00068C31.2859 5.00106 31.4426 5.00143 31.604 5.00181C34.0717 5.01168 36.4568 5.13702 38.8722 5.679C39.03 5.71305 39.1879 5.7471 39.3505 5.78218C45.5724 7.15915 51.8827 10.207 55.4461 15.7129C57.0831 18.3504 58.3428 21.5662 57.9162 24.723C57.4841 25.6353 57.0217 26.2027 56.0732 26.566C55.0718 26.6747 54.161 26.7035 53.2192 26.3228C52.2315 25.4548 51.8754 24.7561 51.6706 23.456C51.0687 20.078 49.3899 17.5976 46.6536 15.5082C40.4721 11.2842 32.5102 10.469 25.2842 11.7188C20.7169 12.591 16.5888 14.4596 13.2754 17.7607C13.1606 17.8708 13.0457 17.9808 12.9274 18.0942C10.9637 20.1507 10.3045 22.7232 10.3518 25.4733C10.4021 26.6294 10.7062 27.5838 11.2277 28.6137C11.3579 28.8711 11.3579 28.8711 11.4908 29.1337C13.7883 33.2679 18.0924 35.7526 22.5173 37.0706C23.2548 37.275 23.9961 37.4562 24.7428 37.6238C24.9421 37.6692 25.1413 37.7146 25.3467 37.7614C26.3621 37.957 27.3769 38.0496 28.4071 38.1261C28.7365 38.151 28.7365 38.151 29.0725 38.1764C29.5155 38.2085 29.9588 38.2379 30.4021 38.2643C32.5714 38.4153 32.5714 38.4153 33.4213 39.3773C34.3394 40.5327 35.0471 41.822 35.775 43.1015C36.753 44.7981 37.7285 46.4754 38.8722 48.0673C38.9978 48.2431 39.1235 48.4189 39.2529 48.6C40.0204 49.6331 40.6057 50.3637 41.9054 50.6525C43.2882 50.3814 44.147 49.2369 44.913 48.1185C47.153 44.3632 48.3836 39.9433 49.51 35.752C49.6039 35.4038 49.6039 35.4038 49.6996 35.0486C49.8158 34.6105 49.9289 34.1716 50.0384 33.7318C50.3966 32.3674 50.7661 31.3969 51.9865 30.5895C52.8585 30.3006 53.783 30.2901 54.647 30.6119C55.3515 30.9918 55.9266 31.3725 56.278 32.0949C56.718 33.9627 56.1102 35.6309 55.5869 37.419C55.4924 37.7494 55.3979 38.0798 55.3034 38.4103C54.1767 42.3123 52.9156 46.1354 50.9539 49.7055C50.8412 49.9227 50.7284 50.14 50.6123 50.3638C49.1019 53.1514 46.819 55.5852 43.7868 56.6678C41.5786 57.2086 39.6546 56.775 37.7331 55.6183C34.3426 53.3263 31.0803 48.7818 29.6976 44.9493C29.4721 44.5309 29.4721 44.5309 28.9292 44.4374C28.7099 44.4152 28.4906 44.393 28.2647 44.3701C28.0201 44.3422 27.7755 44.3143 27.5234 44.2855C27.2604 44.258 26.9975 44.2305 26.7265 44.2022C19.5998 43.3583 12.4749 40.5817 7.74649 34.9617C5.03258 31.4067 3.69 27.3536 4.06055 22.88C4.23126 21.7591 4.54041 20.6838 4.87965 19.6036C4.93878 19.4144 4.99791 19.2251 5.05883 19.0301C5.88931 16.7055 7.49496 14.8105 9.17991 13.0509C9.30767 12.9102 9.43543 12.7695 9.56706 12.6245C12.8779 9.09808 17.7847 7.06012 22.4007 5.93496C22.5673 5.89425 22.7339 5.85353 22.9056 5.81158C25.6404 5.18263 28.3353 4.98679 31.1292 5.00068Z" fill="white"/>
<path d="M42.1397 22.4154C42.9544 22.8356 43.4344 23.2671 43.7867 24.1088C44.0293 25.1349 44.0211 25.809 43.582 26.7708C43.1035 27.4726 42.7282 27.8854 41.9438 28.2042C40.9213 28.3493 40.1179 28.3172 39.1921 27.8459C38.2556 27.0236 37.9202 26.4588 37.8235 25.2102C37.8664 24.3679 38.1494 23.7443 38.6674 23.0849C39.6618 22.1934 40.8845 21.9469 42.1397 22.4154Z" fill="white"/>
<path d="M21.8759 22.2658C22.971 22.6659 23.6076 23.2717 24.1285 24.3135C24.2941 25.6468 24.1081 26.5105 23.3094 27.5899C22.5137 28.3373 21.621 28.3071 20.5777 28.2762C19.5886 28.1455 19.0605 27.6755 18.4204 26.95C18.0049 25.8883 17.9973 24.78 18.4332 23.7248C19.4488 22.5341 20.3196 22.1061 21.8759 22.2658Z" fill="white"/>
<path d="M31.9098 22.2657C32.8582 22.7847 33.6115 23.2755 33.9575 24.3135C34.0649 25.3362 34.0702 26.1318 33.612 27.0651C32.9898 27.7546 32.5761 28.1493 31.6298 28.2618C30.6072 28.2982 29.8509 28.279 29.0429 27.5899C28.2474 26.6838 27.9551 26.172 27.9751 24.947C28.0708 24.0144 28.4716 23.4393 29.1453 22.8161C30.0164 22.2281 30.8805 22.1215 31.9098 22.2657Z" fill="white"/>
</svg>
