<svg width="60" height="60" viewBox="0 0 60 60" fill="none" xmlns="http://www.w3.org/2000/svg">
<path d="M29.6315 4.00069C29.7912 4.00107 29.9508 4.00146 30.1152 4.00185C32.6286 4.0119 35.0578 4.13956 37.518 4.69157C37.6787 4.72625 37.8395 4.76094 38.0052 4.79667C44.3422 6.19913 50.7694 9.30343 54.3988 14.9113C56.0662 17.5977 57.3491 20.873 56.9146 24.0882C56.4745 25.0174 56.0036 25.5954 55.0375 25.9653C54.0175 26.0761 53.0899 26.1054 52.1307 25.7177C51.1246 24.8336 50.762 24.122 50.5534 22.7977C49.9403 19.3573 48.2305 16.8309 45.4435 14.7028C39.1475 10.4006 31.0382 9.57028 23.6783 10.8433C19.0265 11.7315 14.8219 13.6347 11.4472 16.997C11.3302 17.1091 11.2133 17.2212 11.0928 17.3367C9.09271 19.4313 8.42123 22.0514 8.46939 24.8524C8.52064 26.0299 8.83036 27.002 9.3615 28.051C9.49418 28.3131 9.49418 28.3131 9.62954 28.5806C11.9696 32.7914 16.3534 35.3221 20.8602 36.6645C21.6114 36.8727 22.3664 37.0573 23.1269 37.2279C23.3299 37.2742 23.5329 37.3204 23.742 37.3681C24.7762 37.5674 25.8098 37.6617 26.8591 37.7396C27.1946 37.7649 27.1946 37.7649 27.5368 37.7907C27.988 37.8235 28.4395 37.8534 28.8911 37.8803C31.1005 38.0341 31.1005 38.0341 31.9662 39.0139C32.9013 40.1908 33.622 41.5039 34.3634 42.8071C35.3596 44.5351 36.3531 46.2435 37.518 47.8648C37.6459 48.0439 37.7739 48.2229 37.9058 48.4074C38.6874 49.4596 39.2836 50.2038 40.6074 50.498C42.0158 50.2218 42.8905 49.0561 43.6707 47.917C45.9522 44.0921 47.2056 39.5904 48.3528 35.3215C48.4484 34.9669 48.4484 34.9669 48.5459 34.6051C48.6642 34.1589 48.7795 33.7118 48.891 33.2638C49.2558 31.8742 49.6321 30.8857 50.8752 30.0633C51.7633 29.7691 52.7049 29.7585 53.5849 30.0862C54.3024 30.4731 54.8882 30.8609 55.2461 31.5966C55.6942 33.4991 55.0752 35.1981 54.5422 37.0194C54.4459 37.3559 54.3497 37.6924 54.2535 38.029C53.1059 42.0033 51.8214 45.8972 49.8234 49.5333C49.7086 49.7546 49.5938 49.9759 49.4755 50.2039C47.9371 53.0431 45.612 55.522 42.5236 56.6246C40.2745 57.1754 38.3149 56.7338 36.3578 55.5557C32.9045 53.2212 29.5818 48.5925 28.1735 44.6891C27.9438 44.263 27.9438 44.263 27.3908 44.1678C27.1675 44.1451 26.9442 44.1225 26.7141 44.0992C26.4649 44.0708 26.2157 44.0423 25.959 44.013C25.6912 43.985 25.4233 43.957 25.1474 43.9281C17.8887 43.0686 10.6319 40.2406 5.81587 34.5166C3.0517 30.8957 1.68426 26.7675 2.06167 22.2112C2.23554 21.0694 2.55042 19.9742 2.89594 18.8741C2.95616 18.6813 3.01639 18.4885 3.07843 18.2899C3.9243 15.9223 5.55968 13.9922 7.27583 12.2C7.40596 12.0567 7.53609 11.9134 7.67015 11.7657C11.0423 8.17397 16.0399 6.09827 20.7414 4.95228C20.9111 4.91081 21.0808 4.86934 21.2557 4.82661C24.0411 4.18601 26.786 3.98655 29.6315 4.00069Z" fill="#021730"/>
<path d="M40.846 21.7378C41.6757 22.1658 42.1647 22.6053 42.5235 23.4625C42.7706 24.5077 42.7622 25.1943 42.3149 26.1739C41.8276 26.8887 41.4454 27.3091 40.6464 27.6339C39.6051 27.7817 38.7867 27.7489 37.8438 27.2689C36.8899 26.4313 36.5483 25.8561 36.4498 24.5844C36.4935 23.7265 36.7817 23.0913 37.3094 22.4197C38.3222 21.5117 39.5676 21.2606 40.846 21.7378Z" fill="#398611"/>
<path d="M20.207 21.5855C21.3223 21.993 21.9706 22.61 22.5012 23.6711C22.6699 25.0291 22.4805 25.9088 21.6669 27.0082C20.8565 27.7695 19.9473 27.7387 18.8847 27.7072C17.8773 27.5741 17.3394 27.0953 16.6874 26.3564C16.2643 25.275 16.2565 24.1462 16.7004 23.0715C17.7349 21.8587 18.6217 21.4228 20.207 21.5855Z" fill="#398611"/>
<path d="M30.4266 21.5854C31.3926 22.1139 32.1599 22.6138 32.5123 23.6711C32.6217 24.7128 32.627 25.523 32.1603 26.4737C31.5266 27.1759 31.1053 27.578 30.1415 27.6925C29.0999 27.7296 28.3297 27.7101 27.5067 27.0081C26.6964 26.0853 26.3987 25.564 26.4191 24.3163C26.5165 23.3664 26.9247 22.7807 27.611 22.1459C28.4981 21.5471 29.3783 21.4385 30.4266 21.5854Z" fill="#398611"/>
</svg>
